<svg xmlns="http://www.w3.org/2000/svg" viewBox="0 0 1200 800" width="1200" height="800">
  <defs>
    <linearGradient id="bgGrad" x1="0%" y1="0%" x2="100%" y2="100%">
      <stop offset="0%" stop-color="#0a0a1a"/>
      <stop offset="100%" stop-color="#0f0f2a"/>
    </linearGradient>
    <linearGradient id="accentGrad" x1="0%" y1="0%" x2="100%" y2="0%">
      <stop offset="0%" stop-color="#667eea"/>
      <stop offset="100%" stop-color="#764ba2"/>
    </linearGradient>
    <linearGradient id="accentGradV" x1="0%" y1="0%" x2="0%" y2="100%">
      <stop offset="0%" stop-color="#667eea"/>
      <stop offset="100%" stop-color="#764ba2"/>
    </linearGradient>
    <linearGradient id="greenGrad" x1="0%" y1="0%" x2="100%" y2="0%">
      <stop offset="0%" stop-color="#43e97b"/>
      <stop offset="100%" stop-color="#38f9d7"/>
    </linearGradient>
    <linearGradient id="orangeGrad" x1="0%" y1="0%" x2="100%" y2="0%">
      <stop offset="0%" stop-color="#f093fb"/>
      <stop offset="100%" stop-color="#f5576c"/>
    </linearGradient>
    <linearGradient id="yellowGrad" x1="0%" y1="0%" x2="100%" y2="0%">
      <stop offset="0%" stop-color="#f7971e"/>
      <stop offset="100%" stop-color="#ffd200"/>
    </linearGradient>
    <linearGradient id="cyanGrad" x1="0%" y1="0%" x2="100%" y2="0%">
      <stop offset="0%" stop-color="#4facfe"/>
      <stop offset="100%" stop-color="#00f2fe"/>
    </linearGradient>
    <linearGradient id="redGrad" x1="0%" y1="0%" x2="100%" y2="0%">
      <stop offset="0%" stop-color="#fa709a"/>
      <stop offset="100%" stop-color="#fee140"/>
    </linearGradient>
    <filter id="glow">
      <feGaussianBlur stdDeviation="2" result="coloredBlur"/>
      <feMerge>
        <feMergeNode in="coloredBlur"/>
        <feMergeNode in="SourceGraphic"/>
      </feMerge>
    </filter>
    <filter id="softShadow">
      <feDropShadow dx="0" dy="2" stdDeviation="4" flood-color="#000000" flood-opacity="0.3"/>
    </filter>
    <marker id="arrowWhite" markerWidth="8" markerHeight="6" refX="8" refY="3" orient="auto">
      <path d="M0,0 L8,3 L0,6 Z" fill="rgba(255,255,255,0.5)"/>
    </marker>
    <marker id="arrowAccent" markerWidth="8" markerHeight="6" refX="8" refY="3" orient="auto">
      <path d="M0,0 L8,3 L0,6 Z" fill="#667eea"/>
    </marker>
    <marker id="arrowGreen" markerWidth="8" markerHeight="6" refX="8" refY="3" orient="auto">
      <path d="M0,0 L8,3 L0,6 Z" fill="#43e97b"/>
    </marker>
    <marker id="arrowOrange" markerWidth="8" markerHeight="6" refX="8" refY="3" orient="auto">
      <path d="M0,0 L8,3 L0,6 Z" fill="#f093fb"/>
    </marker>
    <marker id="arrowCyan" markerWidth="8" markerHeight="6" refX="8" refY="3" orient="auto">
      <path d="M0,0 L8,3 L0,6 Z" fill="#4facfe"/>
    </marker>
    <marker id="arrowYellow" markerWidth="8" markerHeight="6" refX="8" refY="3" orient="auto">
      <path d="M0,0 L8,3 L0,6 Z" fill="#f7971e"/>
    </marker>
  </defs>

  <style>
    text { font-family: 'Inter', -apple-system, BlinkMacSystemFont, 'Segoe UI', sans-serif; }
  </style>

  <!-- Background -->
  <rect width="1200" height="800" fill="url(#bgGrad)"/>

  <!-- Subtle grid pattern -->
  <g opacity="0.03">
    <line x1="0" y1="0" x2="0" y2="800" stroke="white" stroke-width="1" transform="translate(60,0)" />
    <line x1="0" y1="0" x2="0" y2="800" stroke="white" stroke-width="1" transform="translate(120,0)" />
    <line x1="0" y1="0" x2="0" y2="800" stroke="white" stroke-width="1" transform="translate(180,0)" />
    <line x1="0" y1="0" x2="0" y2="800" stroke="white" stroke-width="1" transform="translate(240,0)" />
    <line x1="0" y1="0" x2="0" y2="800" stroke="white" stroke-width="1" transform="translate(300,0)" />
    <line x1="0" y1="0" x2="0" y2="800" stroke="white" stroke-width="1" transform="translate(360,0)" />
    <line x1="0" y1="0" x2="0" y2="800" stroke="white" stroke-width="1" transform="translate(420,0)" />
    <line x1="0" y1="0" x2="0" y2="800" stroke="white" stroke-width="1" transform="translate(480,0)" />
    <line x1="0" y1="0" x2="0" y2="800" stroke="white" stroke-width="1" transform="translate(540,0)" />
    <line x1="0" y1="0" x2="0" y2="800" stroke="white" stroke-width="1" transform="translate(600,0)" />
    <line x1="0" y1="0" x2="0" y2="800" stroke="white" stroke-width="1" transform="translate(660,0)" />
    <line x1="0" y1="0" x2="0" y2="800" stroke="white" stroke-width="1" transform="translate(720,0)" />
    <line x1="0" y1="0" x2="0" y2="800" stroke="white" stroke-width="1" transform="translate(780,0)" />
    <line x1="0" y1="0" x2="0" y2="800" stroke="white" stroke-width="1" transform="translate(840,0)" />
    <line x1="0" y1="0" x2="0" y2="800" stroke="white" stroke-width="1" transform="translate(900,0)" />
    <line x1="0" y1="0" x2="0" y2="800" stroke="white" stroke-width="1" transform="translate(960,0)" />
    <line x1="0" y1="0" x2="0" y2="800" stroke="white" stroke-width="1" transform="translate(1020,0)" />
    <line x1="0" y1="0" x2="0" y2="800" stroke="white" stroke-width="1" transform="translate(1080,0)" />
    <line x1="0" y1="0" x2="0" y2="800" stroke="white" stroke-width="1" transform="translate(1140,0)" />
    <line x1="0" y1="0" x2="1200" y2="0" stroke="white" stroke-width="1" transform="translate(0,60)" />
    <line x1="0" y1="0" x2="1200" y2="0" stroke="white" stroke-width="1" transform="translate(0,120)" />
    <line x1="0" y1="0" x2="1200" y2="0" stroke="white" stroke-width="1" transform="translate(0,180)" />
    <line x1="0" y1="0" x2="1200" y2="0" stroke="white" stroke-width="1" transform="translate(0,240)" />
    <line x1="0" y1="0" x2="1200" y2="0" stroke="white" stroke-width="1" transform="translate(0,300)" />
    <line x1="0" y1="0" x2="1200" y2="0" stroke="white" stroke-width="1" transform="translate(0,360)" />
    <line x1="0" y1="0" x2="1200" y2="0" stroke="white" stroke-width="1" transform="translate(0,420)" />
    <line x1="0" y1="0" x2="1200" y2="0" stroke="white" stroke-width="1" transform="translate(0,480)" />
    <line x1="0" y1="0" x2="1200" y2="0" stroke="white" stroke-width="1" transform="translate(0,540)" />
    <line x1="0" y1="0" x2="1200" y2="0" stroke="white" stroke-width="1" transform="translate(0,600)" />
    <line x1="0" y1="0" x2="1200" y2="0" stroke="white" stroke-width="1" transform="translate(0,660)" />
    <line x1="0" y1="0" x2="1200" y2="0" stroke="white" stroke-width="1" transform="translate(0,720)" />
  </g>

  <!-- Title -->
  <text x="600" y="38" text-anchor="middle" fill="white" font-size="22" font-weight="700" letter-spacing="1" filter="url(#glow)">CutTo — System Architecture</text>
  <rect x="440" y="44" width="320" height="2" rx="1" fill="url(#accentGrad)" opacity="0.6"/>

  <!-- ============================================================ -->
  <!-- COLUMN 1: FRONTEND (x=30..230) -->
  <!-- ============================================================ -->
  <g filter="url(#softShadow)">
    <!-- Group box -->
    <rect x="30" y="70" width="200" height="310" rx="12" fill="rgba(102,126,234,0.08)" stroke="rgba(102,126,234,0.3)" stroke-width="1"/>
    <text x="130" y="95" text-anchor="middle" fill="#667eea" font-size="13" font-weight="700" letter-spacing="0.5">FRONTEND</text>
    <text x="130" y="111" text-anchor="middle" fill="rgba(255,255,255,0.4)" font-size="10">React + Vite</text>

    <!-- Chat UI -->
    <rect x="50" y="125" width="160" height="36" rx="8" fill="rgba(102,126,234,0.15)" stroke="rgba(102,126,234,0.4)" stroke-width="1"/>
    <text x="130" y="147" text-anchor="middle" fill="white" font-size="11" font-weight="500">Chat UI</text>

    <!-- Scene Editor -->
    <rect x="50" y="171" width="160" height="36" rx="8" fill="rgba(102,126,234,0.15)" stroke="rgba(102,126,234,0.4)" stroke-width="1"/>
    <text x="130" y="193" text-anchor="middle" fill="white" font-size="11" font-weight="500">Scene Editor</text>

    <!-- Generating View -->
    <rect x="50" y="217" width="160" height="36" rx="8" fill="rgba(102,126,234,0.15)" stroke="rgba(102,126,234,0.4)" stroke-width="1"/>
    <text x="130" y="239" text-anchor="middle" fill="white" font-size="11" font-weight="500">Generating View</text>

    <!-- Video Player -->
    <rect x="50" y="263" width="160" height="36" rx="8" fill="rgba(102,126,234,0.15)" stroke="rgba(102,126,234,0.4)" stroke-width="1"/>
    <text x="130" y="285" text-anchor="middle" fill="white" font-size="11" font-weight="500">Video Player</text>

    <!-- Voice Input -->
    <rect x="50" y="309" width="160" height="36" rx="8" fill="rgba(102,126,234,0.15)" stroke="rgba(102,126,234,0.4)" stroke-width="1"/>
    <text x="130" y="331" text-anchor="middle" fill="white" font-size="11" font-weight="500">Voice Input</text>
    <text x="130" y="343" text-anchor="middle" fill="rgba(255,255,255,0.35)" font-size="8">Web Speech API</text>
  </g>

  <!-- ============================================================ -->
  <!-- WebSocket arrow: Frontend -> Backend -->
  <!-- ============================================================ -->
  <line x1="230" y1="210" x2="280" y2="210" stroke="url(#accentGrad)" stroke-width="2" marker-end="url(#arrowAccent)" stroke-dasharray="6,3"/>
  <text x="255" y="200" text-anchor="middle" fill="rgba(255,255,255,0.4)" font-size="8" transform="rotate(-90, 255, 200)">WebSocket</text>

  <!-- ============================================================ -->
  <!-- COLUMN 2: BACKEND (x=280..490) -->
  <!-- ============================================================ -->
  <g filter="url(#softShadow)">
    <rect x="280" y="70" width="210" height="310" rx="12" fill="rgba(118,75,162,0.08)" stroke="rgba(118,75,162,0.3)" stroke-width="1"/>
    <text x="385" y="95" text-anchor="middle" fill="#a78bfa" font-size="13" font-weight="700" letter-spacing="0.5">BACKEND</text>
    <text x="385" y="111" text-anchor="middle" fill="rgba(255,255,255,0.4)" font-size="10">FastAPI + Python</text>

    <!-- WebSocket Server -->
    <rect x="300" y="125" width="170" height="36" rx="8" fill="rgba(118,75,162,0.15)" stroke="rgba(118,75,162,0.4)" stroke-width="1"/>
    <text x="385" y="147" text-anchor="middle" fill="white" font-size="11" font-weight="500">WebSocket Server</text>

    <!-- ConversationSession -->
    <rect x="300" y="171" width="170" height="36" rx="8" fill="rgba(118,75,162,0.15)" stroke="rgba(118,75,162,0.4)" stroke-width="1"/>
    <text x="385" y="193" text-anchor="middle" fill="white" font-size="11" font-weight="500">ConversationSession</text>

    <!-- Pipeline Orchestrator -->
    <rect x="300" y="217" width="170" height="36" rx="8" fill="rgba(118,75,162,0.15)" stroke="rgba(118,75,162,0.4)" stroke-width="1"/>
    <text x="385" y="239" text-anchor="middle" fill="white" font-size="11" font-weight="500">Pipeline Orchestrator</text>

    <!-- Google ADK box -->
    <rect x="300" y="270" width="170" height="100" rx="8" fill="rgba(118,75,162,0.10)" stroke="rgba(167,139,250,0.35)" stroke-width="1"/>
    <text x="385" y="290" text-anchor="middle" fill="#a78bfa" font-size="10" font-weight="600">Google ADK</text>
    <!-- 3 agent pills -->
    <rect x="308" y="300" width="70" height="24" rx="6" fill="rgba(167,139,250,0.15)" stroke="rgba(167,139,250,0.3)" stroke-width="0.75"/>
    <text x="343" y="316" text-anchor="middle" fill="rgba(255,255,255,0.8)" font-size="9">Director</text>

    <rect x="385" y="300" width="78" height="24" rx="6" fill="rgba(167,139,250,0.15)" stroke="rgba(167,139,250,0.3)" stroke-width="0.75"/>
    <text x="424" y="316" text-anchor="middle" fill="rgba(255,255,255,0.8)" font-size="9">Storyboard</text>

    <rect x="333" y="332" width="100" height="24" rx="6" fill="rgba(167,139,250,0.15)" stroke="rgba(167,139,250,0.3)" stroke-width="0.75"/>
    <text x="383" y="348" text-anchor="middle" fill="rgba(255,255,255,0.8)" font-size="9">Orchestrator</text>
  </g>

  <!-- ============================================================ -->
  <!-- COLUMN 3: GEMINI API (x=530..740) -->
  <!-- ============================================================ -->

  <!-- Arrow: Backend -> Gemini -->
  <line x1="490" y1="180" x2="535" y2="130" stroke="rgba(67,233,123,0.5)" stroke-width="1.5" marker-end="url(#arrowGreen)"/>

  <g filter="url(#softShadow)">
    <rect x="535" y="70" width="210" height="120" rx="12" fill="rgba(67,233,123,0.06)" stroke="rgba(67,233,123,0.25)" stroke-width="1"/>
    <text x="640" y="95" text-anchor="middle" fill="#43e97b" font-size="13" font-weight="700" letter-spacing="0.5">GOOGLE GEMINI</text>

    <!-- gemini-2.5-flash -->
    <rect x="553" y="108" width="175" height="30" rx="7" fill="rgba(67,233,123,0.12)" stroke="rgba(67,233,123,0.3)" stroke-width="0.75"/>
    <text x="640" y="125" text-anchor="middle" fill="white" font-size="10" font-weight="500">gemini-2.5-flash</text>
    <text x="640" y="135" text-anchor="middle" fill="rgba(255,255,255,0.35)" font-size="8">text + image interleaved</text>

    <!-- FLOW Prompt Engine -->
    <rect x="553" y="146" width="175" height="30" rx="7" fill="rgba(67,233,123,0.12)" stroke="rgba(67,233,123,0.3)" stroke-width="0.75"/>
    <text x="640" y="163" text-anchor="middle" fill="white" font-size="10" font-weight="500">FLOW Prompt Engine</text>
    <text x="640" y="173" text-anchor="middle" fill="rgba(255,255,255,0.35)" font-size="8">6-element decomposition</text>
  </g>

  <!-- ============================================================ -->
  <!-- ROW 2: VISUAL GENERATION (x=535..745, y=210) -->
  <!-- ============================================================ -->

  <!-- Arrow: Pipeline -> Visual Gen -->
  <line x1="470" y1="235" x2="535" y2="265" stroke="rgba(240,147,251,0.5)" stroke-width="1.5" marker-end="url(#arrowOrange)"/>

  <g filter="url(#softShadow)">
    <rect x="535" y="210" width="210" height="160" rx="12" fill="rgba(240,147,251,0.06)" stroke="rgba(240,147,251,0.25)" stroke-width="1"/>
    <text x="640" y="235" text-anchor="middle" fill="#f093fb" font-size="13" font-weight="700" letter-spacing="0.5">VISUAL GENERATION</text>
    <text x="640" y="249" text-anchor="middle" fill="rgba(255,255,255,0.35)" font-size="9">fallback chain</text>

    <!-- Veo 3.0 -->
    <rect x="555" y="260" width="170" height="28" rx="7" fill="rgba(240,147,251,0.12)" stroke="rgba(240,147,251,0.3)" stroke-width="0.75"/>
    <text x="640" y="278" text-anchor="middle" fill="white" font-size="10" font-weight="600">Veo 3.0</text>
    <text x="720" y="278" text-anchor="end" fill="rgba(255,255,255,0.35)" font-size="8">video</text>

    <!-- Fallback arrow 1 -->
    <text x="640" y="296" text-anchor="middle" fill="rgba(240,147,251,0.4)" font-size="10">&#8595; fails</text>

    <!-- Imagen 4.0 -->
    <rect x="555" y="302" width="170" height="28" rx="7" fill="rgba(240,147,251,0.12)" stroke="rgba(240,147,251,0.3)" stroke-width="0.75"/>
    <text x="640" y="320" text-anchor="middle" fill="white" font-size="10" font-weight="600">Imagen 4.0</text>
    <text x="720" y="320" text-anchor="end" fill="rgba(255,255,255,0.35)" font-size="8">image</text>

    <!-- Fallback arrow 2 -->
    <text x="640" y="338" text-anchor="middle" fill="rgba(240,147,251,0.4)" font-size="10">&#8595; fails</text>

    <!-- Gemini Native -->
    <rect x="555" y="344" width="170" height="28" rx="7" fill="rgba(240,147,251,0.12)" stroke="rgba(240,147,251,0.3)" stroke-width="0.75"/>
    <text x="640" y="362" text-anchor="middle" fill="white" font-size="10" font-weight="600">Gemini Native</text>
    <text x="720" y="362" text-anchor="end" fill="rgba(255,255,255,0.35)" font-size="8">inline</text>
  </g>

  <!-- ============================================================ -->
  <!-- ROW 3: AUDIO GENERATION (x=535..745, y=390) -->
  <!-- ============================================================ -->

  <!-- Arrow: Pipeline -> Audio -->
  <line x1="470" y1="245" x2="535" y2="430" stroke="rgba(79,172,254,0.4)" stroke-width="1.5" marker-end="url(#arrowCyan)"/>

  <g filter="url(#softShadow)">
    <rect x="535" y="390" width="210" height="110" rx="12" fill="rgba(79,172,254,0.06)" stroke="rgba(79,172,254,0.25)" stroke-width="1"/>
    <text x="640" y="415" text-anchor="middle" fill="#4facfe" font-size="13" font-weight="700" letter-spacing="0.5">AUDIO</text>

    <!-- edge-tts -->
    <rect x="555" y="428" width="170" height="28" rx="7" fill="rgba(79,172,254,0.12)" stroke="rgba(79,172,254,0.3)" stroke-width="0.75"/>
    <text x="640" y="446" text-anchor="middle" fill="white" font-size="10" font-weight="500">Cloud TTS Journey</text>
    <text x="720" y="446" text-anchor="end" fill="rgba(255,255,255,0.35)" font-size="8">natural voice</text>

    <!-- Arrow down -->
    <text x="640" y="464" text-anchor="middle" fill="rgba(79,172,254,0.4)" font-size="10">&#8595;</text>

    <!-- Wav2Lip -->
    <rect x="555" y="468" width="170" height="28" rx="7" fill="rgba(79,172,254,0.12)" stroke="rgba(79,172,254,0.3)" stroke-width="0.75"/>
    <text x="640" y="486" text-anchor="middle" fill="white" font-size="10" font-weight="500">Wav2Lip</text>
    <text x="720" y="486" text-anchor="end" fill="rgba(255,255,255,0.35)" font-size="8">lipsync</text>
  </g>

  <!-- ============================================================ -->
  <!-- ROW 4: FFMPEG ASSEMBLY (x=790..1170, y=210) -->
  <!-- ============================================================ -->

  <!-- Arrow: Visual Gen -> FFmpeg -->
  <line x1="745" y1="310" x2="800" y2="290" stroke="rgba(247,151,30,0.5)" stroke-width="1.5" marker-end="url(#arrowYellow)"/>
  <!-- Arrow: Audio -> FFmpeg -->
  <line x1="745" y1="460" x2="800" y2="370" stroke="rgba(247,151,30,0.5)" stroke-width="1.5" marker-end="url(#arrowYellow)"/>

  <g filter="url(#softShadow)">
    <rect x="800" y="210" width="370" height="200" rx="12" fill="rgba(247,151,30,0.06)" stroke="rgba(247,151,30,0.25)" stroke-width="1"/>
    <text x="985" y="238" text-anchor="middle" fill="#f7971e" font-size="13" font-weight="700" letter-spacing="0.5">FFMPEG ASSEMBLY</text>

    <!-- Ken Burns -->
    <rect x="820" y="258" width="160" height="32" rx="7" fill="rgba(247,151,30,0.12)" stroke="rgba(247,151,30,0.3)" stroke-width="0.75"/>
    <text x="900" y="278" text-anchor="middle" fill="white" font-size="10" font-weight="500">Ken Burns Effect</text>
    <text x="900" y="288" text-anchor="middle" fill="rgba(255,255,255,0.35)" font-size="8">static images -> motion</text>

    <!-- Duration Sync -->
    <rect x="990" y="258" width="160" height="32" rx="7" fill="rgba(247,151,30,0.12)" stroke="rgba(247,151,30,0.3)" stroke-width="0.75"/>
    <text x="1070" y="278" text-anchor="middle" fill="white" font-size="10" font-weight="500">Duration Sync</text>
    <text x="1070" y="288" text-anchor="middle" fill="rgba(255,255,255,0.35)" font-size="8">video/audio match</text>

    <!-- Crossfade -->
    <rect x="820" y="304" width="160" height="32" rx="7" fill="rgba(247,151,30,0.12)" stroke="rgba(247,151,30,0.3)" stroke-width="0.75"/>
    <text x="900" y="324" text-anchor="middle" fill="white" font-size="10" font-weight="500">Crossfade Transitions</text>
    <text x="900" y="334" text-anchor="middle" fill="rgba(255,255,255,0.35)" font-size="8">duration-aware offsets</text>

    <!-- Background Music -->
    <rect x="990" y="304" width="160" height="32" rx="7" fill="rgba(247,151,30,0.12)" stroke="rgba(247,151,30,0.3)" stroke-width="0.75"/>
    <text x="1070" y="324" text-anchor="middle" fill="white" font-size="10" font-weight="500">Background Music</text>
    <text x="1070" y="334" text-anchor="middle" fill="rgba(255,255,255,0.35)" font-size="8">mood-matched, 25% vol</text>

    <!-- Lipsync Merge -->
    <rect x="905" y="350" width="160" height="32" rx="7" fill="rgba(247,151,30,0.12)" stroke="rgba(247,151,30,0.3)" stroke-width="0.75"/>
    <text x="985" y="370" text-anchor="middle" fill="white" font-size="10" font-weight="500">Lipsync Merge</text>
    <text x="985" y="380" text-anchor="middle" fill="rgba(255,255,255,0.35)" font-size="8">character dialogue scenes</text>
  </g>

  <!-- ============================================================ -->
  <!-- OUTPUT: Final MP4 (x=880..1090, y=440) -->
  <!-- ============================================================ -->

  <!-- Arrow: FFmpeg -> Output -->
  <line x1="985" y1="410" x2="985" y2="448" stroke="url(#accentGrad)" stroke-width="2" marker-end="url(#arrowAccent)"/>

  <g filter="url(#softShadow)">
    <rect x="895" y="450" width="180" height="50" rx="12" fill="rgba(102,126,234,0.12)" stroke="url(#accentGrad)" stroke-width="1.5"/>
    <text x="985" y="480" text-anchor="middle" fill="white" font-size="14" font-weight="700">Final MP4</text>
  </g>

  <!-- Arrow: Output -> Frontend (curved path back) -->
  <path d="M 895,475 Q 820,475 780,475 Q 760,475 760,455 Q 760,430 760,410 Q 760,390 740,390 Q 700,390 640,390 Q 400,570 200,570 Q 170,570 170,540 Q 170,510 170,470 Q 170,400 150,380" fill="none" stroke="rgba(102,126,234,0.3)" stroke-width="1.5" stroke-dasharray="4,3" marker-end="url(#arrowAccent)"/>
  <text x="420" y="563" text-anchor="middle" fill="rgba(255,255,255,0.3)" font-size="8">stream to player</text>

  <!-- ============================================================ -->
  <!-- DATA FLOW LABELS -->
  <!-- ============================================================ -->

  <!-- Pipeline label between Backend and services -->
  <text x="510" y="200" text-anchor="middle" fill="rgba(255,255,255,0.25)" font-size="8" transform="rotate(-35, 510, 200)">Gemini calls</text>
  <text x="510" y="295" text-anchor="middle" fill="rgba(255,255,255,0.25)" font-size="8" transform="rotate(10, 510, 295)">visual prompts</text>
  <text x="505" y="410" text-anchor="middle" fill="rgba(255,255,255,0.25)" font-size="8" transform="rotate(45, 505, 410)">narration text</text>

  <!-- Parallel batches note -->
  <rect x="800" y="164" width="140" height="28" rx="6" fill="rgba(247,151,30,0.08)" stroke="rgba(247,151,30,0.2)" stroke-width="0.75"/>
  <text x="870" y="182" text-anchor="middle" fill="rgba(247,151,30,0.7)" font-size="9" font-weight="500">staggered parallel batches</text>

  <!-- ============================================================ -->
  <!-- BOTTOM TECH BADGE ROW -->
  <!-- ============================================================ -->
  <g transform="translate(0, 30)">
    <!-- Tech badges -->
    <rect x="30" y="690" width="1140" height="44" rx="10" fill="rgba(255,255,255,0.02)" stroke="rgba(255,255,255,0.06)" stroke-width="0.75"/>

    <text x="60" y="716" fill="rgba(255,255,255,0.25)" font-size="9" font-weight="600" letter-spacing="1">STACK</text>

    <rect x="110" y="701" width="68" height="22" rx="5" fill="rgba(102,126,234,0.15)" stroke="rgba(102,126,234,0.3)" stroke-width="0.5"/>
    <text x="144" y="716" text-anchor="middle" fill="rgba(255,255,255,0.6)" font-size="9">React 18</text>

    <rect x="186" y="701" width="56" height="22" rx="5" fill="rgba(102,126,234,0.15)" stroke="rgba(102,126,234,0.3)" stroke-width="0.5"/>
    <text x="214" y="716" text-anchor="middle" fill="rgba(255,255,255,0.6)" font-size="9">Vite 5</text>

    <rect x="250" y="701" width="62" height="22" rx="5" fill="rgba(118,75,162,0.15)" stroke="rgba(118,75,162,0.3)" stroke-width="0.5"/>
    <text x="281" y="716" text-anchor="middle" fill="rgba(255,255,255,0.6)" font-size="9">FastAPI</text>

    <rect x="320" y="701" width="72" height="22" rx="5" fill="rgba(118,75,162,0.15)" stroke="rgba(118,75,162,0.3)" stroke-width="0.5"/>
    <text x="356" y="716" text-anchor="middle" fill="rgba(255,255,255,0.6)" font-size="9">Python 3.11</text>

    <rect x="400" y="701" width="80" height="22" rx="5" fill="rgba(67,233,123,0.12)" stroke="rgba(67,233,123,0.25)" stroke-width="0.5"/>
    <text x="440" y="716" text-anchor="middle" fill="rgba(255,255,255,0.6)" font-size="9">google-genai</text>

    <rect x="488" y="701" width="72" height="22" rx="5" fill="rgba(67,233,123,0.12)" stroke="rgba(67,233,123,0.25)" stroke-width="0.5"/>
    <text x="524" y="716" text-anchor="middle" fill="rgba(255,255,255,0.6)" font-size="9">Google ADK</text>

    <rect x="568" y="701" width="56" height="22" rx="5" fill="rgba(240,147,251,0.12)" stroke="rgba(240,147,251,0.25)" stroke-width="0.5"/>
    <text x="596" y="716" text-anchor="middle" fill="rgba(255,255,255,0.6)" font-size="9">Veo 3.0</text>

    <rect x="632" y="701" width="72" height="22" rx="5" fill="rgba(240,147,251,0.12)" stroke="rgba(240,147,251,0.25)" stroke-width="0.5"/>
    <text x="668" y="716" text-anchor="middle" fill="rgba(255,255,255,0.6)" font-size="9">Imagen 4.0</text>

    <rect x="712" y="701" width="62" height="22" rx="5" fill="rgba(79,172,254,0.12)" stroke="rgba(79,172,254,0.25)" stroke-width="0.5"/>
    <text x="743" y="716" text-anchor="middle" fill="rgba(255,255,255,0.6)" font-size="9">Cloud TTS</text>

    <rect x="782" y="701" width="62" height="22" rx="5" fill="rgba(79,172,254,0.12)" stroke="rgba(79,172,254,0.25)" stroke-width="0.5"/>
    <text x="813" y="716" text-anchor="middle" fill="rgba(255,255,255,0.6)" font-size="9">Wav2Lip</text>

    <rect x="852" y="701" width="58" height="22" rx="5" fill="rgba(247,151,30,0.12)" stroke="rgba(247,151,30,0.25)" stroke-width="0.5"/>
    <text x="881" y="716" text-anchor="middle" fill="rgba(255,255,255,0.6)" font-size="9">FFmpeg</text>

    <rect x="918" y="701" width="56" height="22" rx="5" fill="rgba(255,255,255,0.05)" stroke="rgba(255,255,255,0.12)" stroke-width="0.5"/>
    <text x="946" y="716" text-anchor="middle" fill="rgba(255,255,255,0.6)" font-size="9">Docker</text>

    <rect x="982" y="701" width="80" height="22" rx="5" fill="rgba(255,255,255,0.05)" stroke="rgba(255,255,255,0.12)" stroke-width="0.5"/>
    <text x="1022" y="716" text-anchor="middle" fill="rgba(255,255,255,0.6)" font-size="9">Cloud Run</text>

    <rect x="1070" y="701" width="82" height="22" rx="5" fill="rgba(255,255,255,0.05)" stroke="rgba(255,255,255,0.12)" stroke-width="0.5"/>
    <text x="1111" y="716" text-anchor="middle" fill="rgba(255,255,255,0.6)" font-size="9">WebSocket</text>
  </g>

  <!-- ============================================================ -->
  <!-- BOTTOM-RIGHT: Legend -->
  <!-- ============================================================ -->
  <g transform="translate(800, 520)">
    <text x="0" y="0" fill="rgba(255,255,255,0.3)" font-size="9" font-weight="600" letter-spacing="0.5">DATA FLOW</text>

    <line x1="0" y1="16" x2="30" y2="16" stroke="rgba(102,126,234,0.6)" stroke-width="1.5" stroke-dasharray="6,3"/>
    <text x="38" y="20" fill="rgba(255,255,255,0.4)" font-size="9">WebSocket (realtime)</text>

    <line x1="0" y1="34" x2="30" y2="34" stroke="rgba(67,233,123,0.5)" stroke-width="1.5"/>
    <text x="38" y="38" fill="rgba(255,255,255,0.4)" font-size="9">Gemini API calls</text>

    <line x1="0" y1="52" x2="30" y2="52" stroke="rgba(240,147,251,0.5)" stroke-width="1.5"/>
    <text x="38" y="56" fill="rgba(255,255,255,0.4)" font-size="9">Visual generation</text>

    <line x1="0" y1="70" x2="30" y2="70" stroke="rgba(79,172,254,0.5)" stroke-width="1.5"/>
    <text x="38" y="74" fill="rgba(255,255,255,0.4)" font-size="9">Audio pipeline</text>

    <line x1="0" y1="88" x2="30" y2="88" stroke="rgba(247,151,30,0.5)" stroke-width="1.5"/>
    <text x="38" y="92" fill="rgba(255,255,255,0.4)" font-size="9">Assembly pipeline</text>

    <!-- Fallback chain note -->
    <text x="220" y="20" fill="rgba(255,255,255,0.3)" font-size="9" font-weight="600" letter-spacing="0.5">FALLBACK CHAIN</text>
    <text x="220" y="38" fill="rgba(240,147,251,0.6)" font-size="9">Veo 3.0</text>
    <text x="275" y="38" fill="rgba(255,255,255,0.25)" font-size="9">-></text>
    <text x="293" y="38" fill="rgba(240,147,251,0.6)" font-size="9">Imagen 4.0</text>
    <text x="360" y="38" fill="rgba(255,255,255,0.25)" font-size="9">-></text>
    <text x="378" y="38" fill="rgba(240,147,251,0.6)" font-size="9">Gemini</text>

    <text x="220" y="58" fill="rgba(255,255,255,0.3)" font-size="9" font-weight="600" letter-spacing="0.5">AUDIO CHAIN</text>
    <text x="220" y="76" fill="rgba(79,172,254,0.6)" font-size="9">Cloud TTS</text>
    <text x="280" y="76" fill="rgba(255,255,255,0.25)" font-size="9">-></text>
    <text x="298" y="76" fill="rgba(79,172,254,0.6)" font-size="9">edge-tts fallback</text>
  </g>

  <!-- ============================================================ -->
  <!-- Decorative corner accents -->
  <!-- ============================================================ -->
  <rect x="0" y="0" width="3" height="60" rx="1.5" fill="url(#accentGradV)" opacity="0.4"/>
  <rect x="0" y="0" width="60" height="3" rx="1.5" fill="url(#accentGrad)" opacity="0.4"/>
  <rect x="1197" y="0" width="3" height="60" rx="1.5" fill="url(#accentGradV)" opacity="0.4"/>
  <rect x="1140" y="0" width="60" height="3" rx="1.5" fill="url(#accentGrad)" opacity="0.4"/>
  <rect x="0" y="740" width="3" height="60" rx="1.5" fill="url(#accentGradV)" opacity="0.4"/>
  <rect x="0" y="797" width="60" height="3" rx="1.5" fill="url(#accentGrad)" opacity="0.4"/>
  <rect x="1197" y="740" width="3" height="60" rx="1.5" fill="url(#accentGradV)" opacity="0.4"/>
  <rect x="1140" y="797" width="60" height="3" rx="1.5" fill="url(#accentGrad)" opacity="0.4"/>
</svg>